<?xml version="1.0" encoding="utf-8"?>
<!-- Generator: Adobe Illustrator 26.0.1, SVG Export Plug-In . SVG Version: 6.00 Build 0)  -->
<svg version="1.1" id="Layer_1" xmlns="http://www.w3.org/2000/svg" xmlns:xlink="http://www.w3.org/1999/xlink" x="0px" y="0px"
	 viewBox="0 0 601.1 107.3" style="enable-background:new 0 0 601.1 107.3;" xml:space="preserve">
<g id="Logo_Text">
	<rect id="P_x27_s_main_body" width="18.3" height="107.3"/>
	<path id="i_x27_s_body" d="M108.5,107.3H90.3V36.9c0-2.6,2.1-4.8,4.8-4.8h8.7c2.6,0,4.8,2.1,4.8,4.8V107.3z"/>
	<path id="P_x27_s_circle" d="M26.2,56.7c18.9,0,34.3-12.7,34.3-28.4S45.1,0,26.2,0"/>
	<circle id="i_x27_s_dot" cx="99.4" cy="13.1" r="11.5"/>
</g>
<g>
	<g>
		<path d="M146.3,72.2V40.3h4.7v31.9H146.3z M150.5,62.3v-4.3h5.3c2.5,0,4.3-0.6,5.6-1.8c1.3-1.2,1.9-3,1.9-5.4
			c0-2.1-0.6-3.6-1.9-4.7c-1.3-1.1-3.1-1.6-5.6-1.6h-5.2v-4.3h5.2c4,0,7,0.9,9.1,2.7c2.1,1.8,3.1,4.4,3.1,7.9c0,3.8-1,6.6-3.1,8.5
			c-2.1,1.9-5.1,2.9-9.1,2.9H150.5z"/>
		<path d="M179.7,72.7c-2.5,0-4.4-0.6-5.8-1.8s-2-2.9-2-5.1c0-2.5,0.9-4.4,2.8-5.8c1.9-1.3,4.5-2,8-2c1.4,0,2.7,0.1,3.8,0.3
			c1.1,0.2,2.1,0.4,3,0.8l-1,3.2c-1-0.2-2-0.4-2.9-0.4c-1,0-1.9-0.1-2.9-0.1c-4.1,0-6.2,1.3-6.2,3.8c0,1,0.4,1.9,1.1,2.4
			c0.7,0.6,1.7,0.9,3,0.9c1.5,0,2.7-0.3,3.7-0.8c1-0.5,1.7-1.2,2.2-2s0.7-1.6,0.7-2.4v-2.6l1.4,6.1h-1.9l0.8-0.7
			c0,1.4-0.3,2.5-1,3.4c-0.6,0.9-1.5,1.6-2.7,2.1C182.6,72.4,181.2,72.7,179.7,72.7z M188.1,72.4l-0.3-7.1l-0.6-2v-6.2
			c0-1.6-0.6-2.8-1.7-3.5c-1.1-0.7-2.8-1.1-5-1.2l-5.7-0.2l0.4-4.2l4.8,0.1c3.9,0.1,6.9,0.9,8.8,2.5c1.9,1.6,2.9,4,2.9,7.2v9.9
			l4,0.5v3.8L188.1,72.4z"/>
		<path d="M200.4,72.2V48.4h4.3l0.4,5v18.8H200.4z M215,72.2V56.7c0-1.4-0.4-2.5-1.1-3.3c-0.7-0.8-1.8-1.2-3.1-1.2
			c-3.7,0-5.6,2.2-5.6,6.6l-1.4-6.1h1.8c0.1-1.6,0.7-2.8,1.8-3.6s2.5-1.2,4.5-1.2c2.5,0,4.5,0.8,5.8,2.3s2.1,3.7,2.1,6.5v15.5H215z"
			/>
		<path d="M235.2,72.7c-3.1,0-5.5-1-7.1-3.1c-1.6-2.1-2.4-5.1-2.4-9.1c0-4.1,0.8-7.3,2.4-9.4c1.6-2.1,4-3.2,7.1-3.2
			c1.8,0,3.2,0.4,4.3,1.3c1.1,0.8,1.8,2,2,3.5h1.8l-1.4,6.8c0-2.5-0.5-4.3-1.4-5.6c-1-1.3-2.4-1.9-4.3-1.9c-1.9,0-3.4,0.7-4.4,2.2
			s-1.5,3.6-1.5,6.4c0,2.7,0.5,4.7,1.5,6s2.4,2,4.4,2c1.9,0,3.3-0.6,4.3-1.9c1-1.3,1.4-3.1,1.4-5.6l1.6,6.8h-2.1
			c-0.1,1.5-0.8,2.7-1.9,3.5C238.5,72.2,237.1,72.7,235.2,72.7z M242.5,72.4l-0.5-4.7V38.5h4.8v33.7L242.5,72.4z"/>
		<path d="M266.1,72.7c-4.1,0-7.2-1.1-9.4-3.2c-2.2-2.1-3.3-5.2-3.3-9.2c0-3.9,0.9-6.9,2.8-9.1s4.5-3.2,7.9-3.2c3.2,0,5.7,1,7.5,2.9
			c1.8,1.9,2.6,4.8,2.6,8.5c0,1.1,0,2.1-0.1,3.1h-16.7v-3.6h12.5c0-2.1-0.5-3.8-1.5-4.9s-2.4-1.7-4.2-1.7c-2,0-3.6,0.7-4.7,2.1
			c-1.1,1.4-1.7,3.3-1.7,5.8c0,2.8,0.8,4.9,2.3,6.3c1.5,1.4,3.7,2.2,6.5,2.2c1,0,2-0.1,2.9-0.2c1-0.1,1.9-0.3,2.9-0.5L273,72
			c-1.4,0.3-2.7,0.4-3.9,0.5S267,72.7,266.1,72.7z"/>
		<path d="M288.2,72.2l-9.5-23.8h4.9l7.8,20.2h0.7v3.6H288.2z M279.2,83l-0.2-4.3l3.7-0.4c1.6-0.2,2.9-0.6,4-1.3
			c1.1-0.7,2.1-1.6,2.9-2.9c0.8-1.3,1.5-3,2.1-5.1l5.9-20.6h4.9l-6.9,21.7c-0.9,2.8-1.9,5.1-3,6.9c-1.1,1.7-2.4,3-4,3.9
			c-1.5,0.9-3.3,1.4-5.5,1.7L279.2,83z"/>
		<path d="M335.2,44.6v-4.3h19.4v4.3H335.2z M335.2,72.2v-4.3h19.4v4.3H335.2z M342.5,72.2V40.3h4.7v31.9H342.5z"/>
		<path d="M362.1,72.2V48.4h4.3l0.4,5v18.8H362.1z M376.8,72.2V56.7c0-1.4-0.4-2.5-1.1-3.3c-0.7-0.8-1.8-1.2-3.1-1.2
			c-3.7,0-5.6,2.2-5.6,6.6l-1.4-6.1h1.8c0.1-1.6,0.7-2.8,1.8-3.6s2.5-1.2,4.5-1.2c2.5,0,4.5,0.8,5.8,2.3s2.1,3.7,2.1,6.5v15.5H376.8
			z"/>
		<path d="M397,72.7c-3.1,0-5.5-1-7.1-3.1c-1.6-2.1-2.4-5.1-2.4-9.1c0-4.1,0.8-7.3,2.4-9.4c1.6-2.1,4-3.2,7.1-3.2
			c1.8,0,3.2,0.4,4.3,1.3c1.1,0.8,1.8,2,2,3.5h1.8l-1.4,6.8c0-2.5-0.5-4.3-1.4-5.6c-1-1.3-2.4-1.9-4.3-1.9c-1.9,0-3.4,0.7-4.4,2.2
			s-1.5,3.6-1.5,6.4c0,2.7,0.5,4.7,1.5,6s2.4,2,4.4,2c1.9,0,3.3-0.6,4.3-1.9c1-1.3,1.4-3.1,1.4-5.6l1.6,6.8h-2.1
			c-0.1,1.5-0.8,2.7-1.9,3.5C400.3,72.2,398.8,72.7,397,72.7z M404.2,72.4l-0.5-4.7V38.5h4.8v33.7L404.2,72.4z"/>
		<path d="M423.4,72.7c-2.5,0-4.4-0.7-5.8-2.2c-1.4-1.5-2.1-3.6-2.1-6.3V48.4h4.8v15.7c0,1.4,0.4,2.4,1.2,3.2
			c0.8,0.7,1.9,1.1,3.3,1.1c1.7,0,3-0.6,3.9-1.7c0.9-1.1,1.3-2.9,1.3-5.5l1.2,6.4h-1.6c-0.4,1.6-1.1,2.9-2.2,3.7
			S425,72.7,423.4,72.7z M430,65.5V48.4h4.8v15.7L430,65.5z M430.4,72.4l-0.4-5.7v-4.2h4.8v5.3l3.3,0.5v3.8L430.4,72.4z"/>
		<path d="M450.8,72.7c-1.8,0-3.3-0.1-4.6-0.2c-1.3-0.1-2.5-0.3-3.5-0.5l0.5-4.3c1.6,0.2,3,0.4,4.2,0.5c1.2,0.1,2.3,0.2,3.4,0.2
			c2.4,0,4.2-0.2,5.2-0.7c1.1-0.5,1.6-1.2,1.6-2.3c0-0.7-0.2-1.3-0.6-1.6c-0.4-0.4-1-0.6-1.8-0.8l-5.5-1.4c-2.4-0.6-4.1-1.3-5.2-2.2
			c-1.1-0.9-1.7-2.2-1.7-4c0-2.6,1-4.5,3-5.7c2-1.2,5.2-1.8,9.7-1.8c1.2,0,2.2,0,3.2,0.1c1,0.1,2,0.2,3.1,0.3l-0.5,4.1
			c-1.2-0.1-2.3-0.2-3.2-0.2s-1.8-0.1-2.7-0.1c-2.7,0-4.6,0.2-5.8,0.7c-1.2,0.5-1.8,1.2-1.8,2.2c0,0.7,0.2,1.2,0.7,1.5
			c0.5,0.3,1.2,0.6,2.3,0.8l4.4,1.1c2.5,0.6,4.3,1.4,5.5,2.4c1.2,1,1.7,2.5,1.7,4.4c0,2.6-0.9,4.4-2.8,5.6
			C458,72.1,455,72.7,450.8,72.7z"/>
		<path d="M467.7,52.6v-4.2h21.6v4.2H467.7z M473.7,61V41.2h4.8V61H473.7z M484,72.7c-3.6,0-6.2-0.7-7.8-2.2
			c-1.6-1.5-2.4-3.9-2.4-7.2v-4h4.8V63c0,1.9,0.5,3.3,1.4,4.1c0.9,0.9,2.4,1.3,4.5,1.3c0.7,0,1.5,0,2.4-0.1c0.8-0.1,1.8-0.2,2.9-0.3
			l0.5,4.2c-1,0.2-2.1,0.3-3.1,0.4C486.1,72.6,485.1,72.7,484,72.7z"/>
		<path d="M494.9,72.2V68h15.9v4.2H494.9z M495.8,52.6v-4.2h8l0.4,4.2H495.8z M500.2,72.2V48.4h3.9l0.9,6.8v17H500.2z M505,62
			l-1.4-7.5h1.8c0.3-4.4,2.5-6.6,6.6-6.6c2.5,0,4.2,0.7,5.3,2.1c1.1,1.4,1.7,3.7,1.7,6.8h-4.7c0-1.7-0.3-3-0.8-3.8
			c-0.5-0.8-1.4-1.1-2.5-1.1c-2,0-3.5,0.9-4.5,2.6C505.5,56.3,505,58.8,505,62z"/>
		<path d="M523.7,72.2V68h9.5v4.2H523.7z M525,52.6v-4.2h12.5v4.2H525z M535,44.6c-0.9,0-1.7-0.3-2.3-1c-0.7-0.7-1-1.4-1-2.3
			c0-0.9,0.3-1.7,1-2.4c0.7-0.6,1.4-1,2.3-1c0.9,0,1.7,0.3,2.4,1c0.6,0.6,1,1.4,1,2.4c0,0.9-0.3,1.7-1,2.3S535.9,44.6,535,44.6z
			 M532.7,72.2V49.7h4.8v22.5H532.7z M537,72.2V68h7.8v4.2H537z"/>
		<path d="M562.6,72.7c-4.1,0-7.2-1.1-9.4-3.2c-2.2-2.1-3.3-5.2-3.3-9.2c0-3.9,0.9-6.9,2.8-9.1s4.5-3.2,7.9-3.2c3.2,0,5.7,1,7.5,2.9
			c1.8,1.9,2.6,4.8,2.6,8.5c0,1.1,0,2.1-0.1,3.1h-16.7v-3.6h12.5c0-2.1-0.5-3.8-1.5-4.9s-2.4-1.7-4.2-1.7c-2,0-3.6,0.7-4.7,2.1
			c-1.1,1.4-1.7,3.3-1.7,5.8c0,2.8,0.8,4.9,2.3,6.3c1.5,1.4,3.7,2.2,6.5,2.2c1,0,2-0.1,2.9-0.2c1-0.1,1.9-0.3,2.9-0.5l0.6,4.2
			c-1.4,0.3-2.7,0.4-3.9,0.5S563.5,72.7,562.6,72.7z"/>
		<path d="M585.6,72.7c-1.8,0-3.3-0.1-4.6-0.2c-1.3-0.1-2.5-0.3-3.5-0.5l0.5-4.3c1.6,0.2,3,0.4,4.2,0.5c1.2,0.1,2.3,0.2,3.4,0.2
			c2.4,0,4.2-0.2,5.2-0.7c1.1-0.5,1.6-1.2,1.6-2.3c0-0.7-0.2-1.3-0.6-1.6c-0.4-0.4-1-0.6-1.8-0.8l-5.5-1.4c-2.4-0.6-4.1-1.3-5.2-2.2
			c-1.1-0.9-1.7-2.2-1.7-4c0-2.6,1-4.5,3-5.7c2-1.2,5.2-1.8,9.7-1.8c1.2,0,2.2,0,3.2,0.1c1,0.1,2,0.2,3.1,0.3l-0.5,4.1
			c-1.2-0.1-2.3-0.2-3.2-0.2s-1.8-0.1-2.7-0.1c-2.7,0-4.6,0.2-5.8,0.7c-1.2,0.5-1.8,1.2-1.8,2.2c0,0.7,0.2,1.2,0.7,1.5
			c0.5,0.3,1.2,0.6,2.3,0.8l4.4,1.1c2.5,0.6,4.3,1.4,5.5,2.4c1.2,1,1.7,2.5,1.7,4.4c0,2.6-0.9,4.4-2.8,5.6
			C592.7,72.1,589.7,72.7,585.6,72.7z"/>
	</g>
</g>
</svg>
